<svg xmlns="http://www.w3.org/2000/svg" viewBox="20 20 260 260">
  <!-- K-CAP 2027 constellation mark: a constellation K inside a baseball / Future of Pittsburgh Ball. TODO 2027: placeholder until an official logo exists -->
  <circle cx="150" cy="150" r="120" fill="none" stroke="#7a8494" stroke-opacity="0.45" stroke-width="2"/>
  <ellipse cx="150" cy="150" rx="60" ry="120" fill="none" stroke="#7a8494" stroke-opacity="0.45" stroke-width="2.2" stroke-linecap="round" stroke-dasharray="0.1 9"/>
  <ellipse cx="150" cy="150" rx="102" ry="120" fill="none" stroke="#7a8494" stroke-opacity="0.45" stroke-width="2.2" stroke-linecap="round" stroke-dasharray="0.1 9"/>
  <ellipse cx="150" cy="84" rx="100" ry="19" fill="none" stroke="#7a8494" stroke-opacity="0.45" stroke-width="2.2" stroke-linecap="round" stroke-dasharray="0.1 9"/>
  <ellipse cx="150" cy="216" rx="100" ry="19" fill="none" stroke="#7a8494" stroke-opacity="0.45" stroke-width="2.2" stroke-linecap="round" stroke-dasharray="0.1 9"/>
  <path d="M76.1 55.4 Q 88 150 76.1 244.6" fill="none" stroke="#b9c0ca" stroke-width="2"/>
  <line x1="84.9" y1="68.0" x2="71.0" y2="74.4" stroke="#b9c0ca" stroke-width="2" stroke-linecap="round"/>
  <line x1="86.4" y1="83.9" x2="72.4" y2="90.0" stroke="#b9c0ca" stroke-width="2" stroke-linecap="round"/>
  <line x1="87.6" y1="99.8" x2="73.6" y2="105.7" stroke="#b9c0ca" stroke-width="2" stroke-linecap="round"/>
  <line x1="88.4" y1="115.7" x2="74.4" y2="121.3" stroke="#b9c0ca" stroke-width="2" stroke-linecap="round"/>
  <line x1="88.9" y1="131.6" x2="74.9" y2="136.9" stroke="#b9c0ca" stroke-width="2" stroke-linecap="round"/>
  <line x1="89.1" y1="147.5" x2="75.1" y2="152.5" stroke="#b9c0ca" stroke-width="2" stroke-linecap="round"/>
  <line x1="88.9" y1="163.4" x2="74.9" y2="168.1" stroke="#b9c0ca" stroke-width="2" stroke-linecap="round"/>
  <line x1="88.4" y1="179.3" x2="74.4" y2="183.7" stroke="#b9c0ca" stroke-width="2" stroke-linecap="round"/>
  <line x1="87.6" y1="195.2" x2="73.6" y2="199.3" stroke="#b9c0ca" stroke-width="2" stroke-linecap="round"/>
  <line x1="86.4" y1="211.1" x2="72.4" y2="215.0" stroke="#b9c0ca" stroke-width="2" stroke-linecap="round"/>
  <line x1="84.9" y1="227.0" x2="71.0" y2="230.6" stroke="#b9c0ca" stroke-width="2" stroke-linecap="round"/>
  <path d="M218.8 51.7 Q 191 150 218.8 248.3" fill="none" stroke="#b9c0ca" stroke-width="2"/>
  <line x1="221.4" y1="67.2" x2="207.8" y2="69.0" stroke="#b9c0ca" stroke-width="2" stroke-linecap="round"/>
  <line x1="218.0" y1="83.3" x2="204.2" y2="85.7" stroke="#b9c0ca" stroke-width="2" stroke-linecap="round"/>
  <line x1="215.3" y1="99.3" x2="201.5" y2="102.4" stroke="#b9c0ca" stroke-width="2" stroke-linecap="round"/>
  <line x1="213.4" y1="115.4" x2="199.5" y2="119.1" stroke="#b9c0ca" stroke-width="2" stroke-linecap="round"/>
  <line x1="212.3" y1="131.4" x2="198.3" y2="135.8" stroke="#b9c0ca" stroke-width="2" stroke-linecap="round"/>
  <line x1="211.9" y1="147.5" x2="197.9" y2="152.5" stroke="#b9c0ca" stroke-width="2" stroke-linecap="round"/>
  <line x1="212.3" y1="163.6" x2="198.3" y2="169.2" stroke="#b9c0ca" stroke-width="2" stroke-linecap="round"/>
  <line x1="213.4" y1="179.6" x2="199.5" y2="185.9" stroke="#b9c0ca" stroke-width="2" stroke-linecap="round"/>
  <line x1="215.3" y1="195.7" x2="201.5" y2="202.6" stroke="#b9c0ca" stroke-width="2" stroke-linecap="round"/>
  <line x1="218.0" y1="211.7" x2="204.2" y2="219.3" stroke="#b9c0ca" stroke-width="2" stroke-linecap="round"/>
  <line x1="221.4" y1="227.8" x2="207.8" y2="236.0" stroke="#b9c0ca" stroke-width="2" stroke-linecap="round"/>
  <g fill="#7a8494"><circle cx="270.0" cy="150.0" r="3.2"/><circle cx="265.9" cy="181.1" r="3.2"/><circle cx="253.9" cy="210.0" r="3.2"/><circle cx="234.9" cy="234.9" r="3.2"/><circle cx="210.0" cy="253.9" r="3.2"/><circle cx="181.1" cy="265.9" r="3.2"/><circle cx="150.0" cy="270.0" r="3.2"/><circle cx="118.9" cy="265.9" r="3.2"/><circle cx="90.0" cy="253.9" r="3.2"/><circle cx="65.1" cy="234.9" r="3.2"/><circle cx="46.1" cy="210.0" r="3.2"/><circle cx="34.1" cy="181.1" r="3.2"/><circle cx="30.0" cy="150.0" r="3.2"/><circle cx="34.1" cy="118.9" r="3.2"/><circle cx="46.1" cy="90.0" r="3.2"/><circle cx="65.1" cy="65.1" r="3.2"/><circle cx="90.0" cy="46.1" r="3.2"/><circle cx="118.9" cy="34.1" r="3.2"/><circle cx="150.0" cy="30.0" r="3.2"/><circle cx="181.1" cy="34.1" r="3.2"/><circle cx="210.0" cy="46.1" r="3.2"/><circle cx="234.9" cy="65.1" r="3.2"/><circle cx="253.9" cy="90.0" r="3.2"/><circle cx="265.9" cy="118.9" r="3.2"/></g>
  <g stroke="#0f9488" stroke-width="5" stroke-linecap="round"><line x1="108.0" y1="37.6" x2="108.0" y2="93.8"/><line x1="108.0" y1="93.8" x2="108.0" y2="150.0"/><line x1="108.0" y1="150.0" x2="108.0" y2="206.2"/><line x1="108.0" y1="206.2" x2="108.0" y2="262.4"/><line x1="108.0" y1="150.0" x2="176.3" y2="113.1"/><line x1="176.3" y1="113.1" x2="244.6" y2="76.1"/><line x1="108.0" y1="150.0" x2="176.3" y2="186.9"/><line x1="176.3" y1="186.9" x2="244.6" y2="223.9"/></g>
  <g fill="#0f9488"><circle cx="108.0" cy="37.6" r="7.5"/><circle cx="108.0" cy="93.8" r="6"/><circle cx="108.0" cy="150.0" r="10"/><circle cx="108.0" cy="206.2" r="6"/><circle cx="108.0" cy="262.4" r="7.5"/><circle cx="176.3" cy="113.1" r="6"/><circle cx="244.6" cy="76.1" r="7.5"/><circle cx="176.3" cy="186.9" r="6"/><circle cx="244.6" cy="223.9" r="7.5"/></g>
</svg>
